<svg 
          width="18" 
          height="12" fill="none" 
          xmlns="http://www.w3.org/2000/svg">
          <path d="M 10 3.000000238418579 C 10 2.4477155208587646 10.447715282440186 2 11 2 L 12 2 C 12.552284717559814 2 13 2.4477152824401855 13 3 L 13 11 C 13 11.552284717559814 12.552284717559814 12 12 12 L 11 12 C 10.447715282440186 12 10 11.552284717559814 10 11 L 10 3.000000238418579 ZM 15 0.9999997615814209 C 15 0.44771504402160645 15.447715282440186 0 16 0 L 17 0 C 17.552284717559814 0 18 0.44771528244018555 18 1 L 18 11 C 18 11.552284717559814 17.552284717559814 12 17 12 L 16 12 C 15.447715282440186 12 15 11.552284717559814 15 11 L 15 0.9999997615814209 ZM 5 6.5 C 5 5.9477152824401855 5.4477152824401855 5.5 6 5.5 L 7 5.5 C 7.5522847175598145 5.5 8 5.9477152824401855 8 6.5 L 8 11 C 8 11.552284717559814 7.5522847175598145 12 7 12 L 6 12 C 5.4477152824401855 12 5 11.552284717559814 5 11 L 5 6.5 ZM 0 9 C 0 8.447715282440186 0.44771528244018555 8 1 8 L 2 8 C 2.5522847175598145 8 3 8.447715282440186 3 9 L 3 11 C 3 11.552284717559814 2.5522847175598145 12 2 12 L 0.9999999403953552 12 C 0.44771522283554077 12 0 11.552284717559814 0 11 L 0 9 Z" fill="rgb(0,0,0)"/>
        </svg>