<svg 
          width="20.41823959350586" 
          height="18.841705322265625" fill="none" 
          xmlns="http://www.w3.org/2000/svg">
          <path d="M 18.542850494384766 1.886808156967163 C 17.45948898792267 0.8031413555145264 16.023179531097412 0.1442835871130228 14.495122909545898 0.030053848400712013 C 12.967066287994385 -0.08417589031159878 11.448759913444519 0.35380953550338745 10.216320991516113 1.2643588781356812 C 8.918010830879211 0.29868263006210327 7.302026867866516 -0.1392011046409607 5.693790435791016 0.038886770606040955 C 4.085554003715515 0.2169746458530426 2.6045249700546265 0.9978053569793701 1.5489466190338135 2.2241392135620117 C 0.4933682680130005 3.4504730701446533 -0.058350409381091595 5.031216979026794 0.004893270321190357 6.64804744720459 C 0.06813695002347231 8.264877915382385 0.741645097732544 9.797695636749268 1.8897898197174072 10.93782901763916 L 9.491830825805664 18.539871215820312 C 9.58669101446867 18.635512478649616 9.699549280107021 18.711424592882395 9.823895454406738 18.763229370117188 C 9.948241628706455 18.81503414735198 10.081615000963211 18.841705322265625 10.216320991516113 18.841705322265625 C 10.351026982069016 18.841705322265625 10.484399400651455 18.81503414735198 10.608745574951172 18.763229370117188 C 10.733091749250889 18.711424592882395 10.84595001488924 18.635512478649616 10.940810203552246 18.539871215820312 L 18.542850494384766 10.93782901763916 C 19.13739639520645 10.343669295310974 19.609038591384888 9.6381796002388 19.93082618713379 8.861672401428223 C 20.25261378288269 8.085165202617645 20.418239593505863 7.25286066532135 20.41823959350586 6.412318706512451 C 20.418239593505863 5.571776747703552 20.25261378288269 4.739472210407257 19.93082618713379 3.9629650115966797 C 19.609038591384888 3.1864578127861023 19.13739639520645 2.480967879295349 18.542850494384766 1.886808156967163 Z" fill="rgb(235.0000011920929,87.00000241398811,87.00000241398811)"/>
        </svg>